HIERARCHY
ROOT Hips
{
	OFFSET 0.000000 88.474243 0.000000
	CHANNELS 6 Xposition Yposition Zposition Zrotation Yrotation Xrotation 
	JOINT Hips_Spine
	{
		OFFSET 0.000000 0.000000 0.000000
		CHANNELS 3 Zrotation Yrotation Xrotation
		JOINT Spine
		{
			OFFSET 0.005100 8.711998 -0.691000
			CHANNELS 3 Zrotation Yrotation Xrotation
			JOINT Spine1
			{
				OFFSET -0.009200 8.660301 -1.275000
				CHANNELS 3 Zrotation Yrotation Xrotation
				JOINT Spine2
				{
					OFFSET 0.006300 9.852501 -1.857000
					CHANNELS 3 Zrotation Yrotation Xrotation
					JOINT Spine2_Neck
					{
						OFFSET 0.000000 0.000000 0.000000
						CHANNELS 3 Zrotation Yrotation Xrotation
						JOINT Neck
						{
							OFFSET 0.016300 11.420799 -0.263300
							CHANNELS 3 Zrotation Yrotation Xrotation
							End Site #name: Head
							{
								OFFSET -0.019200 9.262405 2.362500
							}
						}
					}
					JOINT Spine2_LeftShoulder
					{
						OFFSET 0.000000 0.000000 0.000000
						CHANNELS 3 Zrotation Yrotation Xrotation
						JOINT LeftShoulder
						{
							OFFSET 5.616900 6.732201 -0.345700
							CHANNELS 3 Zrotation Yrotation Xrotation
							JOINT LeftArm
							{
								OFFSET 10.664888 -0.183372 -2.440700
								CHANNELS 3 Zrotation Yrotation Xrotation
								JOINT LeftForeArm
								{
									OFFSET 27.459126 0.000000 0.000000
									CHANNELS 3 Zrotation Yrotation Xrotation
									End Site #name: LeftHand
									{
										OFFSET 21.306858 0.000000 0.000000
									}
								}
							}
						}
					}
					JOINT Spine2_RightShoulder
					{
						OFFSET 0.000000 0.000000 0.000000
						CHANNELS 3 Zrotation Yrotation Xrotation
						JOINT RightShoulder
						{
							OFFSET -5.580300 6.737503 -0.344400
							CHANNELS 3 Zrotation Yrotation Xrotation
							JOINT RightArm
							{
								OFFSET -10.679335 -0.188484 -2.383900
								CHANNELS 3 Zrotation Yrotation Xrotation
								JOINT RightForeArm
								{
									OFFSET -27.503529 0.000000 0.000000
									CHANNELS 3 Zrotation Yrotation Xrotation
									End Site #name: RightHand
									{
										OFFSET -21.306808 0.000000 0.000000
									}
								}
							}
						}
					}
				}
			}
		}
	}
	JOINT Hips_LeftUpLeg
	{
		OFFSET 0.000000 0.000000 0.000000
		CHANNELS 3 Zrotation Yrotation Xrotation
		JOINT LeftUpLeg
		{
			OFFSET 6.857700 -6.739601 0.312100
			CHANNELS 3 Zrotation Yrotation Xrotation
			JOINT LeftLeg
			{
				OFFSET -0.367590 -34.731552 -4.572400
				CHANNELS 3 Zrotation Yrotation Xrotation
				End Site #name: LeftFoot
				{
					OFFSET 0.367590 -34.656704 -6.067400
				}
			}
		}
	}
	JOINT Hips_RightUpLeg
	{
		OFFSET 0.000000 0.000000 0.000000
		CHANNELS 3 Zrotation Yrotation Xrotation
		JOINT RightUpLeg
		{
			OFFSET -6.876100 -6.733299 0.301000
			CHANNELS 3 Zrotation Yrotation Xrotation
			JOINT RightLeg
			{
				OFFSET 0.347353 -34.795158 -4.515900
				CHANNELS 3 Zrotation Yrotation Xrotation
				End Site #name: RightFoot
				{
					OFFSET -0.347353 -34.589367 -6.070300
				}
			}
		}
	}
}
MOTION
Frames: 18
Frame Time: 0.041667
0.298248 0.661314 -0.929985 1.754633 -13.247627 -6.215706 -0.000000 0.000000 -0.000000 -2.617566 -1.542806 -4.492989 2.142179 -1.919243 -5.986907 0.000000 0.000000 0.000000 2.509451 -1.453641 -5.665163 4.441096 -3.005788 -5.067478 1.136458 -1.713336 -6.633451 -16.996741 -1.647491 9.472899 -53.155686 11.228937 -2.943269 -0.579543 -20.640700 8.859756 1.606217 -1.799208 -3.266748 4.053792 5.861617 1.541904 67.005959 0.428401 -9.650505 0.438705 47.752617 -0.724992 -0.000000 -0.000000 -0.000000 -9.340339 25.459363 -0.434198 -3.006335 -0.251440 17.152799 0.000000 0.000000 0.000000 -6.050328 5.006450 -22.106534 4.539575 -4.397331 18.077202 
-0.005786 0.677946 -0.989062 1.399920 -14.097252 -6.068787 -0.000000 0.000000 -0.000000 -1.624879 -1.564355 -5.333696 2.389198 -1.933797 -5.908880 0.000000 0.000000 0.000000 2.769020 -1.390403 -5.606359 4.212636 -3.098002 -4.721968 1.401541 -1.647198 -6.494569 -16.408431 -1.766899 9.590800 -54.088800 12.189649 -3.864544 -0.634206 -21.539698 8.826772 1.841526 -1.741735 -3.275760 4.140402 6.021860 1.583707 66.803869 0.228892 -9.503216 0.458583 47.941547 -0.709715 -0.000000 -0.000000 -0.000000 -8.552035 25.664946 0.088383 -3.244544 -0.574436 17.030666 0.000000 0.000000 0.000000 -5.223378 5.369448 -22.448007 4.741265 -4.822094 17.842949 
-0.295688 0.695484 -1.039617 1.024511 -14.535200 -5.921957 -0.000000 0.000000 -0.000000 -0.580664 -1.532843 -6.151895 2.642774 -1.940592 -5.799805 0.000000 0.000000 0.000000 2.991258 -1.316767 -5.522055 4.024726 -3.168101 -4.322230 1.675456 -1.576125 -6.334883 -15.861796 -1.888659 9.685049 -55.059271 13.122189 -4.814714 -0.690010 -22.391355 8.788480 2.080047 -1.672885 -3.269613 4.231225 6.178252 1.611304 66.613928 0.085023 -9.273302 0.479828 48.138587 -0.693407 -0.000000 -0.000000 -0.000000 -7.811276 25.838712 0.710783 -3.406420 -0.925115 16.736059 0.000000 0.000000 0.000000 -4.393674 5.765617 -22.771618 4.952219 -5.193814 17.639830 
-0.558914 0.709690 -1.087166 0.659327 -14.947218 -5.804076 -0.000000 -0.000000 -0.000000 0.511620 -1.459726 -6.867899 2.881971 -1.931323 -5.672333 0.000000 0.000000 0.000000 3.165668 -1.237148 -5.418293 3.891853 -3.205940 -3.832006 1.929637 -1.502039 -6.156581 -15.350120 -2.017270 9.747122 -56.086881 13.986446 -5.787605 -0.745180 -23.146268 8.765588 2.298691 -1.600933 -3.248961 4.377594 6.352618 1.634902 66.346729 -0.015906 -9.030828 0.498480 48.506599 -0.680501 -0.000000 -0.000000 -0.000000 -7.037718 26.041803 1.361917 -3.534159 -1.205856 16.409688 0.000000 -0.000000 0.000000 -3.599997 6.207585 -23.024359 5.162457 -5.491161 17.506167 
-0.785200 0.717380 -1.135868 0.352801 -15.641756 -5.721067 -0.000000 -0.000000 -0.000000 1.498183 -1.400232 -7.443893 3.087441 -1.914444 -5.527569 0.000000 0.000000 0.000000 3.316085 -1.158362 -5.299438 3.765224 -3.229269 -3.230372 2.153971 -1.430710 -5.967620 -14.869677 -2.136583 9.780559 -57.123859 14.771611 -6.734981 -0.812654 -23.889410 8.758989 2.488741 -1.532736 -3.211303 4.627407 6.566625 1.660962 65.974486 -0.170564 -8.893426 0.518872 49.083768 -0.667755 -0.000000 -0.000000 -0.000000 -6.223320 26.203227 2.051393 -3.695838 -1.380224 16.023929 0.000000 -0.000000 0.000000 -2.863329 6.676824 -23.240652 5.353494 -5.738820 17.464417 
-0.962836 0.720136 -1.186550 0.138565 -16.843924 -5.653156 -0.000000 -0.000000 -0.000000 2.352007 -1.382926 -7.970529 3.258506 -1.905596 -5.376405 0.000000 0.000000 0.000000 3.438202 -1.088758 -5.174407 3.600476 -3.233502 -2.533710 2.342681 -1.371857 -5.782077 -14.425422 -2.282100 9.785340 -57.995100 15.266135 -7.786935 -0.902268 -24.572708 8.776997 2.648332 -1.480699 -3.165174 5.013469 6.821989 1.703236 65.525954 -0.458351 -8.908416 0.544318 49.882478 -0.648014 -0.000000 -0.000000 -0.000000 -5.433856 26.280423 2.744625 -3.919047 -1.430537 15.655948 0.000000 -0.000000 0.000000 -2.197961 7.161817 -23.516809 5.545920 -5.883996 17.660687 
-1.082459 0.721390 -1.238882 0.044180 -18.698724 -5.603855 -0.000000 -0.000000 -0.000000 3.109904 -1.417043 -8.371482 3.394925 -1.913822 -5.227390 0.000000 0.000000 0.000000 3.534078 -1.035385 -5.053359 3.384273 -3.215733 -1.752189 2.500604 -1.335270 -5.615168 -14.020548 -2.455258 9.762032 -58.826249 15.659122 -8.670182 -0.992314 -25.058713 8.834565 2.780371 -1.442669 -3.119982 5.392081 7.076243 1.747123 65.096454 -0.759325 -8.942328 0.576641 50.747895 -0.623916 -0.000000 -0.000000 -0.000000 -4.772286 26.319710 3.407301 -4.146336 -1.425768 15.282507 0.000000 -0.000000 0.000000 -1.625076 7.664511 -23.875961 5.722682 -5.934602 18.131430 
-1.136491 0.723424 -1.290685 0.063301 -21.122190 -5.560379 -0.000000 -0.000000 -0.000000 3.595784 -1.580598 -8.438307 3.501768 -1.932314 -5.091646 0.000000 0.000000 0.000000 3.606494 -0.999587 -4.933822 3.121851 -3.198359 -0.918796 2.633203 -1.313918 -5.462080 -13.664423 -2.657497 9.709666 -59.566306 15.977718 -9.351352 -1.079970 -25.353842 8.898808 2.889563 -1.421070 -3.075940 5.688090 7.300517 1.778901 64.756072 -1.047110 -8.945776 0.606226 51.518864 -0.601172 -0.000000 -0.000000 -0.000000 -4.244533 26.301389 4.002590 -4.456756 -1.558036 15.071212 0.000000 -0.000000 0.000000 -1.120385 8.192488 -24.338373 5.843194 -5.939366 18.891504 
-1.120602 0.728243 -1.340805 0.177210 -24.016421 -5.539253 -0.000000 -0.000000 -0.000000 4.062788 -1.772567 -8.402378 3.591025 -1.953178 -4.963084 0.000000 0.000000 0.000000 3.661181 -0.976314 -4.817324 2.851828 -3.158621 -0.158911 2.746670 -1.305336 -5.326755 -13.379640 -2.887531 9.627373 -60.190134 16.160523 -9.827081 -1.169463 -25.450718 8.962313 2.979599 -1.417526 -3.035099 5.884347 7.489274 1.802414 64.524702 -1.265930 -8.899857 0.635878 52.114322 -0.584386 -0.000000 -0.000000 -0.000000 -3.900545 26.100897 4.473871 -4.749218 -1.851794 15.191120 0.000000 -0.000000 0.000000 -0.718571 8.716183 -24.894909 5.917218 -5.905917 19.901247 
-1.037873 0.731595 -1.392273 0.369871 -27.392547 -5.556645 -0.000000 -0.000000 -0.000000 4.457620 -1.968052 -8.319664 3.672581 -1.975159 -4.844576 0.000000 0.000000 0.000000 3.706136 -0.960893 -4.711072 2.617416 -3.079751 0.425379 2.831020 -1.305233 -5.210696 -13.187422 -3.111623 9.501848 -60.729798 16.224250 -10.063060 -1.258738 -25.413190 9.003301 3.051954 -1.429686 -3.000170 5.991911 7.642016 1.820953 64.371374 -1.474153 -8.838020 0.665631 52.547453 -0.566368 -0.000000 -0.000000 -0.000000 -3.733654 25.698920 4.870020 -4.893707 -2.173900 15.512522 0.000000 -0.000000 0.000000 -0.413861 9.167186 -25.519706 6.032184 -5.768935 21.117755 
-0.889729 0.732479 -1.447511 0.636469 -31.099417 -5.634143 -0.000000 -0.000000 -0.000000 4.805137 -2.176865 -8.244422 3.751678 -1.998256 -4.739249 0.000000 0.000000 0.000000 3.745786 -0.951167 -4.600851 2.453742 -2.967612 0.873479 2.902591 -1.305997 -5.106097 -13.082807 -3.299235 9.353079 -61.167044 16.122074 -10.064309 -1.346975 -25.290562 9.013716 3.113720 -1.448823 -2.964983 6.028168 7.760288 1.836411 64.279585 -1.660222 -8.776484 0.694456 52.817180 -0.549100 -0.000000 -0.000000 -0.000000 -3.732137 25.199685 5.168077 -4.956349 -2.466132 16.053370 0.000000 -0.000000 0.000000 -0.210809 9.549373 -26.160566 6.131150 -5.593669 22.486187 
-0.686864 0.735026 -1.503760 0.933061 -34.186468 -5.803350 -0.000000 -0.000000 -0.000000 5.125097 -2.393893 -8.202134 3.826416 -2.020040 -4.643889 0.000000 0.000000 0.000000 3.783127 -0.947206 -4.496789 2.345508 -2.793353 1.265453 2.970525 -1.309055 -5.008527 -13.068201 -3.405467 9.193039 -61.434250 15.942890 -9.870169 -1.446530 -25.199407 8.957103 3.172825 -1.473124 -2.932721 6.019128 7.854375 1.848586 64.227036 -1.822370 -8.726605 0.723177 52.978987 -0.528915 -0.000000 -0.000000 -0.000000 -3.859081 24.654201 5.381207 -5.011512 -2.712616 16.754427 0.000000 -0.000000 0.000000 -0.123728 9.967007 -26.808263 6.218350 -5.383410 23.975660 
-0.436471 0.738550 -1.561292 1.244745 -37.048129 -6.029595 -0.000000 -0.000000 -0.000000 5.432705 -2.623278 -8.185437 3.901827 -2.040554 -4.549014 0.000000 0.000000 0.000000 3.818037 -0.944212 -4.392892 2.328121 -2.487545 1.514379 3.041464 -1.312174 -4.918409 -13.138810 -3.444671 9.030182 -61.576495 15.753946 -9.550110 -1.545558 -25.214098 8.859069 3.231744 -1.496729 -2.900685 5.976003 7.942955 1.859158 64.214460 -1.984282 -8.709294 0.746690 53.108101 -0.509762 -0.000000 -0.000000 -0.000000 -4.078558 24.067909 5.549706 -5.149316 -2.961751 17.451849 0.000000 -0.000000 0.000000 -0.139810 10.395234 -27.448153 6.304481 -5.128712 25.561204 
-0.145395 0.742924 -1.618463 1.547294 -39.475308 -6.285796 -0.000000 -0.000000 -0.000000 5.686996 -2.968176 -8.187547 3.984483 -2.058964 -4.456049 0.000000 0.000000 0.000000 3.852483 -0.934117 -4.282738 2.316173 -2.139369 1.724422 3.119141 -1.315942 -4.832886 -13.268773 -3.427814 8.885792 -61.571907 15.490716 -9.098028 -1.630041 -25.268394 8.686263 3.295684 -1.518390 -2.867713 5.910870 8.024002 1.871042 64.244119 -2.150832 -8.747593 0.768874 53.314171 -0.487266 -0.000000 -0.000000 -0.000000 -4.392659 23.459241 5.621421 -5.304253 -3.227443 18.178338 0.000000 -0.000000 0.000000 -0.224040 10.728833 -28.014720 6.410465 -4.843214 27.102114 
0.179427 0.751407 -1.672691 1.777665 -41.489419 -6.515901 -0.000000 -0.000000 -0.000000 5.935903 -3.332263 -8.232532 4.054680 -2.069374 -4.361005 0.000000 0.000000 0.000000 3.895782 -0.922512 -4.179605 2.274253 -1.908203 1.915453 3.204592 -1.316680 -4.742791 -13.442157 -3.369981 8.756732 -61.506992 15.321869 -8.645115 -1.699057 -25.452808 8.427810 3.366805 -1.534650 -2.835693 5.834085 8.105362 1.888820 64.301553 -2.358947 -8.893116 0.791989 53.573367 -0.459085 -0.000000 -0.000000 -0.000000 -4.864572 22.742199 5.446554 -5.382178 -3.483676 19.031170 0.000000 -0.000000 0.000000 -0.335873 10.926204 -28.480820 6.557734 -4.532560 28.505293 
0.531308 0.767305 -1.725311 1.922216 -43.039471 -6.705909 -0.000000 -0.000000 0.000000 6.188146 -3.696449 -8.312247 4.129659 -2.075166 -4.270811 0.000000 0.000000 0.000000 3.951791 -0.907675 -4.074538 2.193816 -1.803802 2.081255 3.297201 -1.313560 -4.651232 -13.609490 -3.333533 8.647465 -61.425237 15.275829 -8.277655 -1.744426 -25.770540 8.097093 3.444579 -1.541740 -2.803362 5.759070 8.188338 1.914874 64.380133 -2.601458 -9.133553 0.811752 53.811831 -0.427618 -0.000000 -0.000000 -0.000000 -5.427767 21.941058 5.038180 -5.402948 -3.622191 19.933741 0.000000 -0.000000 0.000000 -0.457508 11.004319 -28.772784 6.725565 -4.209612 29.656680 
0.904230 0.789748 -1.778470 1.975057 -44.211936 -6.819104 -0.000000 -0.000000 0.000000 6.412401 -4.034720 -8.418453 4.209101 -2.073486 -4.193350 0.000000 0.000000 0.000000 4.014764 -0.887734 -3.974090 2.085583 -1.758935 2.231299 3.395282 -1.305484 -4.569669 -13.734134 -3.339898 8.561717 -61.366705 15.423104 -8.105456 -1.750105 -26.109704 7.705357 3.527086 -1.540779 -2.776475 5.709901 8.277852 1.949752 64.439174 -2.886367 -9.457193 0.828803 53.977037 -0.396953 -0.000000 -0.000000 -0.000000 -5.958261 21.176577 4.505578 -5.442673 -3.653935 20.851993 0.000000 -0.000000 0.000000 -0.600062 10.900710 -28.916546 6.864178 -3.926110 30.555788 
1.290616 0.823725 -1.827592 1.974720 -44.946840 -6.850598 -0.000000 -0.000000 0.000000 6.613600 -4.334189 -8.521503 4.287355 -2.061985 -4.125489 0.000000 0.000000 0.000000 4.080284 -0.858598 -3.887789 1.967148 -1.730217 2.376128 3.492965 -1.291144 -4.493842 -13.796826 -3.447302 8.481012 -61.374823 15.726720 -8.159643 -1.735448 -26.351100 7.330231 3.610583 -1.523909 -2.754532 5.721112 8.390891 1.994354 64.415437 -3.115474 -9.779458 0.845207 54.165669 -0.368299 0.000000 -0.000000 -0.000000 -6.431482 20.547173 3.901118 -5.573232 -3.801418 21.811459 0.000000 -0.000000 0.000000 -0.762685 10.541214 -28.948384 6.895582 -3.714772 31.259968 
